<svg width="377" height="317" viewBox="0 0 377 317" fill="none" xmlns="http://www.w3.org/2000/svg">
  <circle cx="0" cy="0" r="3" fill="#000">
    <animateMotion dur="4.5s" repeatCount="indefinite">
      <mpath href="#signup-illo__line-top"></mpath>
    </animateMotion>
  </circle>
  <path d="M91.15 160.53C90.13 160.11 88.47 160.11 87.46 160.53L77.77 164.59C76.76 165.01 76.76 165.71 77.77 166.13L262.96 243.23C263.98 243.65 265.64 243.65 266.65 243.23L276.34 239.17C277.35 238.75 277.35 238.05 276.34 237.63L91.15 160.53Z" fill="black"/>
<path d="M180.66 229.61C179.64 229.19 177.98 229.19 176.97 229.61L167.28 233.67C166.27 234.09 166.27 234.79 167.28 235.21L352.47 312.31C353.49 312.73 355.15 312.73 356.16 312.31L365.85 308.25C366.86 307.83 366.86 307.13 365.85 306.71L180.66 229.61Z" fill="black"/>
<path d="M52.12 260.36C65.02 260.36 77.1 258.17 86.13 254.21C94.31 250.62 99 245.94 99 241.37C99 236.8 94.31 232.12 86.13 228.53C77.09 224.56 65.01 222.38 52.12 222.38C39.23 222.38 27.14 224.57 18.11 228.53C9.93 232.12 5.24 236.8 5.24 241.37C5.24 245.94 9.93 250.62 18.11 254.21C27.14 258.18 39.22 260.36 52.12 260.36Z" fill="black"/>
<path d="M136.42 160.39V222.1C136.42 227.6 140.57 233.83 145.65 235.94L225.22 269.07C230.3 271.18 234.45 268.41 234.45 262.91V242.28" stroke="black" stroke-miterlimit="10" stroke-linejoin="round"/>
<path d="M133.86 197.6L137.91 199.29L138.97 198.84L134.92 197.16L133.86 197.6Z" fill="black" stroke="black" stroke-miterlimit="10" stroke-linejoin="round"/>
<path d="M138.97 214.46L137.91 214.9V199.29L138.97 198.84V214.46Z" fill="black" stroke="black" stroke-miterlimit="10" stroke-linejoin="round"/>
<path d="M133.86 197.6L137.91 199.29V214.9L133.86 213.22V197.6Z" fill="black" stroke="black" stroke-miterlimit="10" stroke-linejoin="round"/>
<path d="M136.42 179.38V190.34" stroke="white" stroke-miterlimit="10" stroke-linejoin="round"/>
<path d="M234.45 251.91V263.09" stroke="white" stroke-miterlimit="10"/>
  <circle cx="" cy="" r="3" fill="#000">
    <animateMotion dur="5s" repeatCount="indefinite" begin="-0.5s" keyPoints="1;0" keyTimes="0;1" calcMode="linear">
      <mpath href="#signup-illo__line-bottom"></mpath>
    </animateMotion>
  </circle>
<path id="signup-illo__line-bottom" d="M136.42 160.39V222.1C136.42 227.6 140.57 233.83 145.65 235.94L225.22 269.07C230.3 271.18 234.45 268.41 234.45 262.91V234.5" opacity="0" stroke="#FF0000" stroke-miterlimit="10" stroke-linejoin="round"/>
<path d="M91.73 235.27C93.89 233.02 95.1 230.55 95.1 227.95V230.85C95.1 233.45 93.89 235.92 91.73 238.17V235.27Z" fill="white" stroke="black" stroke-miterlimit="10" stroke-linejoin="round"/>
<path d="M91.73 236.79C93.89 234.54 95.1 232.07 95.1 229.47V230.85C95.1 233.45 93.89 235.92 91.73 238.17V236.79Z" fill="white" stroke="black" stroke-miterlimit="10" stroke-linejoin="round"/>
<path d="M95.1 222.41V236.38C95.1 246.8 75.86 255.25 52.12 255.25C28.38 255.25 9.14 246.8 9.14 236.38V222.41H95.1Z" fill="#9CA7FF" stroke="black" stroke-miterlimit="10" stroke-linejoin="round"/>
<path d="M52.12 241.28C75.8572 241.28 95.1 232.832 95.1 222.41C95.1 211.988 75.8572 203.54 52.12 203.54C28.3828 203.54 9.14 211.988 9.14 222.41C9.14 232.832 28.3828 241.28 52.12 241.28Z" fill="white" stroke="black" stroke-miterlimit="10" stroke-linejoin="round"/>
<path d="M52.12 238.83C63.27 238.83 73.71 236.94 81.53 233.51C88.6 230.41 92.66 226.36 92.66 222.41C92.66 218.46 88.6 214.41 81.53 211.31C73.71 207.88 63.27 205.99 52.12 205.99C40.97 205.99 30.53 207.88 22.71 211.31C15.64 214.42 11.58 218.46 11.58 222.41C11.58 226.36 15.64 230.41 22.71 233.51C30.52 236.95 40.97 238.83 52.12 238.83Z" fill="black" stroke="black" stroke-miterlimit="10" stroke-linejoin="round"/>
<path d="M80.31 242.19C89.37 238.73 95.1 233.64 95.1 227.95V230.85C95.1 236.54 89.37 241.63 80.31 245.09V242.19Z" fill="white" stroke="black" stroke-miterlimit="10" stroke-linejoin="round"/>
<path d="M13.01 230.24L13 230.23V230.22C10.53 227.84 9.15 225.2 9.15 222.41V236.38C9.15 236.55 9.17 236.71 9.18 236.87C9.32 239.29 10.49 241.59 12.52 243.7V243.71C14.15 245.41 16.33 246.98 18.96 248.38L22.53 250.06V236.09L22.5 236.07C18.53 234.42 15.3 232.44 13.01 230.24Z" fill="white"/>
<path d="M52.12 241.28C28.38 241.28 9.14 232.83 9.14 222.41V236.38C9.14 246.8 28.38 255.25 52.12 255.25C75.86 255.25 95.1 246.8 95.1 236.38V222.41C95.1 232.84 75.86 241.28 52.12 241.28Z" stroke="black" stroke-miterlimit="10" stroke-linejoin="round"/>
<path d="M95.1 200.84V214.81C95.1 225.23 75.86 233.68 52.12 233.68C28.38 233.68 9.14 225.23 9.14 214.81V200.84H95.1Z" fill="#9CA7FF" stroke="black" stroke-miterlimit="10" stroke-linejoin="round"/>
<path d="M13.01 208.67L13 208.66V208.65C10.53 206.27 9.15 203.63 9.15 200.84V214.81C9.15 214.98 9.17 215.14 9.18 215.3C9.32 217.72 10.49 220.02 12.52 222.13V222.14C14.15 223.84 16.33 225.41 18.96 226.81L22.53 228.49V214.52L22.5 214.5C18.53 212.85 15.3 210.87 13.01 208.67Z" fill="white"/>
<path d="M52.12 219.71C75.8572 219.71 95.1 211.261 95.1 200.84C95.1 190.418 75.8572 181.97 52.12 181.97C28.3828 181.97 9.14 190.418 9.14 200.84C9.14 211.261 28.3828 219.71 52.12 219.71Z" fill="white" stroke="black" stroke-miterlimit="10" stroke-linejoin="round"/>
<path d="M52.12 217.27C63.27 217.27 73.71 215.38 81.53 211.95C88.6 208.85 92.66 204.8 92.66 200.85C92.66 196.9 88.6 192.85 81.53 189.75C73.71 186.32 63.27 184.43 52.12 184.43C40.97 184.43 30.53 186.32 22.71 189.75C15.64 192.86 11.58 196.9 11.58 200.85C11.58 204.8 15.64 208.85 22.71 211.95C30.52 215.38 40.97 217.27 52.12 217.27Z" fill="black" stroke="black" stroke-miterlimit="10" stroke-linejoin="round"/>
<path d="M33.1 223.11V226.01C18.9 222.93 9.13 216.51 9.13 209.08V206.18C9.13 213.61 18.9 220.03 33.1 223.11Z" fill="white" stroke="black" stroke-miterlimit="10" stroke-linejoin="round"/>
<path d="M52.12 219.71C28.38 219.71 9.14 211.26 9.14 200.84V214.81C9.14 225.23 28.38 233.68 52.12 233.68C75.86 233.68 95.1 225.23 95.1 214.81V200.84C95.1 211.27 75.86 219.71 52.12 219.71Z" stroke="black" stroke-miterlimit="10" stroke-linejoin="round"/>
<path d="M95.1 179.27V193.24C95.1 203.66 75.86 212.11 52.12 212.11C28.38 212.11 9.14 203.66 9.14 193.24V179.27H95.1Z" fill="#9CA7FF" stroke="black" stroke-miterlimit="10" stroke-linejoin="round"/>
<path d="M52.12 198.14C75.8572 198.14 95.1 189.692 95.1 179.27C95.1 168.848 75.8572 160.4 52.12 160.4C28.3828 160.4 9.14 168.848 9.14 179.27C9.14 189.692 28.3828 198.14 52.12 198.14Z" fill="white" stroke="black" stroke-miterlimit="10" stroke-linejoin="round"/>
<path d="M52.12 195.7C63.27 195.7 73.71 193.81 81.53 190.38C88.6 187.28 92.66 183.23 92.66 179.28C92.66 175.33 88.6 171.28 81.53 168.18C73.71 164.75 63.27 162.86 52.12 162.86C40.97 162.86 30.53 164.75 22.71 168.18C15.64 171.29 11.58 175.33 11.58 179.28C11.58 183.23 15.64 187.28 22.71 190.38C30.52 193.81 40.97 195.7 52.12 195.7Z" fill="#9CA7FF" stroke="black" stroke-miterlimit="10" stroke-linejoin="round"/>
<path d="M52.12 203.91C60.53 203.91 68.37 202.85 74.99 201.01V203.93C68.36 205.76 60.53 206.83 52.12 206.83C43.71 206.83 35.87 205.77 29.25 203.93V201.01C35.87 202.85 43.71 203.91 52.12 203.91Z" fill="white" stroke="black" stroke-miterlimit="10" stroke-linejoin="round"/>
<path d="M13.01 187.1L13 187.09V187.08C10.53 184.7 9.15 182.06 9.15 179.27V193.24C9.15 193.41 9.17 193.57 9.18 193.73C9.32 196.15 10.49 198.45 12.52 200.56V200.57C14.15 202.27 16.33 203.84 18.96 205.24L22.53 206.92V192.95L22.5 192.93C18.53 191.28 15.3 189.3 13.01 187.1Z" fill="white"/>
<path d="M52.12 198.15C28.38 198.15 9.14 189.7 9.14 179.28V193.25C9.14 203.67 28.38 212.12 52.12 212.12C75.86 212.12 95.1 203.67 95.1 193.25V179.28C95.1 189.7 75.86 198.15 52.12 198.15Z" stroke="black" stroke-miterlimit="10" stroke-linejoin="round"/>
<path d="M81.53 171.17C73.71 167.74 63.27 165.85 52.12 165.85C40.97 165.85 30.53 167.74 22.71 171.17C16.53 173.88 12.66 177.31 11.78 180.77C11.65 180.27 11.59 179.77 11.59 179.27C11.59 175.32 15.65 171.27 22.72 168.17C30.54 164.74 40.98 162.85 52.13 162.85C63.28 162.85 73.72 164.74 81.54 168.17C88.61 171.28 92.67 175.32 92.67 179.27C92.67 179.77 92.6 180.27 92.48 180.77C91.58 177.31 87.71 173.88 81.53 171.17Z" fill="black" stroke="black" stroke-miterlimit="10" stroke-linejoin="round"/>
<path d="M269.32 79.2999L93.36 6.03995C91.46 5.24995 89.78 5.50995 88.34 6.06995C87.44 6.41995 81.23 8.92995 79.32 9.89995C80.23 9.55995 81.35 9.59995 82.55 10.0999L258.51 83.3599C261.56 84.6299 264.05 88.3699 264.05 91.6699V217.8L269.31 219.99C272.36 221.26 274.85 219.6 274.85 216.29V87.6099C274.86 84.3099 272.37 80.5699 269.32 79.2999Z" fill="#9CA7FF" stroke="black" stroke-miterlimit="10" stroke-linejoin="round"/>
<path d="M269.76 79.98L259.85 84.11C262.07 85.64 263.78 88.42 264.02 91.04L274.28 86.76C273.89 84.1 272.07 81.36 269.76 79.98Z" fill="white"/>
<path d="M77.01 142.48C77.01 145.78 79.5 149.52 82.55 150.79L258.51 224.05C261.56 225.32 264.05 223.66 264.05 220.35V91.67C264.05 88.37 261.56 84.63 258.51 83.36L82.55 10.09C79.5 8.82 77.01 10.48 77.01 13.79V142.48Z" fill="black" stroke="black" stroke-miterlimit="10" stroke-linejoin="round"/>
<path d="M94.88 37.8797C93.9 37.4697 93.76 38.0097 93.76 38.4397C93.76 38.8097 93.82 39.2097 93.87 39.6097C93.93 40.0097 93.98 40.4197 93.98 40.7897C93.98 42.1897 93.11 42.3197 91.97 41.8497L91.68 41.7297V40.9697L91.92 41.0697C92.7 41.3797 93.03 41.0997 93.03 40.3297C93.03 39.9997 92.97 39.6597 92.93 39.2897C92.87 38.9397 92.82 38.5697 92.82 38.1897C92.82 37.2997 93.21 36.9897 93.82 37.0997V37.0697C93.21 36.6497 92.82 36.0397 92.82 35.1597C92.82 34.7897 92.88 34.4797 92.93 34.1497C92.97 33.8397 93.03 33.5297 93.03 33.2097C93.03 32.4597 92.74 31.9097 91.94 31.5597L91.69 31.4597V30.6997L91.97 30.8197C93.15 31.3097 93.99 32.1997 93.99 33.4797C93.99 33.8697 93.93 34.2197 93.88 34.5797C93.82 34.9497 93.77 35.3097 93.77 35.6997C93.77 36.1797 93.91 36.7797 94.89 37.1897V37.8797H94.88Z" fill="white"/>
<path d="M104.35 47.1396C105.33 46.1796 106.1 44.6896 106.1 42.1996C106.1 39.7196 105.35 37.6296 104.35 35.8496L105.29 36.2396C106.18 37.7496 107.1 39.9096 107.1 42.6396C107.1 45.3596 106.17 46.7296 105.29 47.5396L104.35 47.1396Z" fill="white"/>
<path d="M111.18 50.0195C111.49 49.3295 111.86 47.9995 112.01 47.0595L113.35 47.4795C113.02 48.5195 112.41 49.7995 112.02 50.2895L111.18 50.0195ZM111.78 42.9695C111.78 42.4595 112.13 42.2395 112.6 42.4395C113.1 42.6495 113.42 43.1395 113.42 43.6495C113.42 44.1295 113.1 44.3795 112.6 44.1695C112.11 43.9595 111.78 43.4495 111.78 42.9695Z" fill="white"/>
<path d="M144.99 142.05C144.99 140.95 145.82 140.4 146.84 140.82L174.68 152.38C175.7 152.8 176.53 154.05 176.53 155.15V160.45C176.53 161.55 175.7 162.1 174.68 161.68L146.84 150.12C145.82 149.7 144.99 148.45 144.99 147.35V142.05Z" fill="#9CA7FF"/>
<path d="M130.83 136.5C130.83 135.4 131.66 134.85 132.67 135.28L139.93 138.34C140.94 138.77 141.77 140.02 141.77 141.12V146.42C141.77 147.52 140.94 148.07 139.93 147.64L132.67 144.58C131.66 144.15 130.83 142.9 130.83 141.8V136.5Z" fill="white"/>
<path d="M92 100.9C90.98 100.48 90.15 101.03 90.15 102.13V107.44C90.15 108.54 90.98 109.79 92 110.21L111.42 118.28C112.44 118.7 113.27 118.15 113.27 117.05V111.74C113.27 110.64 112.44 109.39 111.42 108.97L92 100.9Z" fill="#9CA7FF"/>
<path d="M123.21 113.81C122.19 113.39 121.36 113.94 121.36 115.04V120.35C121.36 121.45 122.19 122.7 123.21 123.12L159.23 138.09C160.25 138.51 161.08 137.96 161.08 136.86V131.55C161.08 130.45 160.25 129.2 159.23 128.78L123.21 113.81Z" stroke="white" stroke-miterlimit="10"/>
<path d="M170.981 137.24V136.134L176.804 138.563V139.669L170.981 137.24ZM170.981 140.272V139.166L176.804 141.594V142.7L170.981 140.272Z" fill="white"/>
<path d="M130.48 81.3598C130.48 80.2598 131.31 79.7098 132.33 80.1298L175.03 97.8598C176.05 98.2798 176.88 99.5298 176.88 100.63V105.93C176.88 107.03 176.05 107.58 175.03 107.16L132.33 89.4298C131.31 89.0098 130.48 87.7598 130.48 86.6598V81.3598Z" fill="#9CA7FF"/>
<path d="M126.52 84.2897C127.01 84.4997 127.32 84.9897 127.33 85.4997C127.33 85.8597 127.16 86.0897 126.86 86.0897C126.76 86.0897 126.64 86.0597 126.51 86.0097C126.02 85.8097 125.69 85.2997 125.69 84.8197C125.69 84.4397 125.88 84.2197 126.19 84.2197C126.28 84.2197 126.39 84.2397 126.52 84.2897Z" fill="white"/>
<path d="M126.5 81.1196C126.01 80.9196 125.68 80.4096 125.68 79.9296C125.68 79.5496 125.87 79.3296 126.18 79.3296C126.28 79.3296 126.39 79.3496 126.51 79.3996C127 79.6096 127.31 80.0996 127.32 80.6096C127.32 80.9696 127.15 81.1996 126.85 81.1996C126.75 81.1996 126.63 81.1796 126.5 81.1196Z" fill="white"/>
<path d="M92.54 63.4398C91.53 63.0098 90.7 63.5498 90.7 64.6498V69.9598C90.7 71.0598 91.53 72.3098 92.54 72.7498L120.32 84.6598C121.33 85.0898 122.16 84.5498 122.16 83.4498V78.1398C122.16 77.0398 121.33 75.7898 120.32 75.3498L92.54 63.4398Z" stroke="white" stroke-miterlimit="10"/>
<path d="M97.72 87.6796C97.72 86.5796 98.55 86.0296 99.57 86.4496L118.03 94.1296C119.05 94.5496 119.88 95.7996 119.88 96.8996V102.2C119.88 103.3 119.05 103.85 118.03 103.43L99.57 95.7496C98.55 95.3296 97.72 94.0796 97.72 92.9796V87.6796Z" fill="white"/>
<path d="M91.96 82.1396L92.92 82.5296C91.91 83.4596 91.18 84.9597 91.18 87.4697C91.18 89.9297 91.95 92.0297 92.93 93.8297L91.97 93.4196C91.1 91.9096 90.16 89.7397 90.16 87.0396C90.17 84.3196 91.09 82.9396 91.96 82.1396Z" fill="white"/>
<path d="M129.74 97.4595L130.7 97.8695C129.69 98.7995 128.96 100.299 128.96 102.799C128.96 105.269 129.72 107.359 130.71 109.159L129.75 108.769C128.88 107.249 127.93 105.079 127.93 102.379C127.94 99.6495 128.87 98.2595 129.74 97.4595Z" fill="white"/>
<path d="M134.18 99.3198L135.12 99.7098C136 101.22 136.94 103.38 136.94 106.11C136.94 108.82 136.01 110.19 135.13 111L134.19 110.61C135.18 109.65 135.93 108.17 135.93 105.68C135.93 103.19 135.18 101.1 134.18 99.3198Z" fill="white"/>
<path d="M145.98 104.54C146.27 104.54 146.62 104.63 147.01 104.79L147.3 104.91V105.67L147.05 105.57C146.83 105.48 146.65 105.44 146.51 105.44C146.11 105.44 145.96 105.76 145.96 106.31C145.96 106.63 146 106.97 146.05 107.34C146.11 107.7 146.15 108.06 146.15 108.43C146.16 109.22 145.86 109.53 145.37 109.53C145.3 109.53 145.23 109.52 145.16 109.51V109.54C145.78 109.95 146.17 110.58 146.16 111.46C146.16 111.83 146.12 112.17 146.06 112.48C146.01 112.8 145.97 113.1 145.97 113.44C145.97 114.22 146.29 114.78 147.06 115.1L147.31 115.2V115.96L147.02 115.84C145.88 115.36 145.02 114.51 145.02 113.11C145.02 112.74 145.07 112.37 145.13 112.02C145.18 111.67 145.23 111.31 145.23 110.94C145.23 110.51 145.09 109.86 144.11 109.45V108.74C144.37 108.85 144.57 108.89 144.73 108.89C145.16 108.89 145.23 108.54 145.23 108.18C145.23 107.8 145.18 107.38 145.13 106.97C145.07 106.56 145.02 106.17 145.02 105.78C145 104.91 145.37 104.54 145.98 104.54Z" fill="white"/>
<path d="M76.6 113.22C76.6 113.22 71.09 110.93 64.36 108.12C57.63 105.32 52.12 109.77 52.12 118.02V182.01" stroke="black" stroke-miterlimit="10" stroke-linecap="round" stroke-linejoin="round"/>
<path d="M76.6 113.22L113.13 128.43C118.21 130.54 122.36 136.77 122.36 142.27V144.02C122.36 149.52 126.51 155.75 131.59 157.86L166.7 172.48" stroke="white" stroke-miterlimit="10" stroke-linejoin="round"/>
<path d="M52.12 162.5V166.3" stroke="white" stroke-miterlimit="10" stroke-linejoin="round"/>
<path d="M183.67 48.17V25.5C183.67 20 187.82 17.23 192.9 19.34L267.3 50.32C272.38 52.43 276.53 58.66 276.53 64.16V64.24C276.53 69.74 280.68 75.97 285.76 78.08L328.63 95.93C333.71 98.04 337.86 104.27 337.86 109.77V134.89" stroke="black" stroke-miterlimit="10" stroke-linecap="round" stroke-linejoin="round"/>
<path d="M335.31 109.82L339.36 111.51L340.42 111.06L336.37 109.38L335.31 109.82Z" fill="black" stroke="black" stroke-miterlimit="10" stroke-linejoin="round"/>
<path d="M340.42 126.68L339.36 127.13V111.51L340.42 111.06V126.68Z" fill="black" stroke="black" stroke-miterlimit="10" stroke-linejoin="round"/>
<path d="M335.31 109.82L339.36 111.51V127.13L335.31 125.44V109.82Z" fill="black" stroke="black" stroke-miterlimit="10" stroke-linejoin="round"/>
<path id="signup-illo__line-left" d="M52.12 182.01V118.02C52.12 109.77 57.63 105.32 64.36 108.12C71.09 110.93 76.6 113.22 76.6 113.22L113.13 128.43C118.21 130.54 122.36 136.77 122.36 142.27V144.02C122.36 149.52 126.51 155.75 131.59 157.86L166.7 172.48" opacity="0" stroke="#00ff00" stroke-miterlimit="10" stroke-linecap="round" stroke-linejoin="round"/>
<path id="signup-illo__line-top" d="M183.67 48.17V25.5C183.67 20 187.82 17.23 192.9 19.34L267.3 50.32C272.38 52.43 276.53 58.66 276.53 64.16V64.24C276.53 69.74 280.68 75.97 285.76 78.08L328.63 95.93C333.71 98.04 337.86 104.27 337.86 109.77V134.89" opacity="0" stroke="#0000FF" stroke-miterlimit="10" stroke-linecap="round" stroke-linejoin="round"/>
  <circle cx="0" cy="0" r="4" fill="#9CA7FF">
    <animateMotion dur="4s" repeatCount="indefinite" begin="-1s">
      <mpath href="#signup-illo__line-left"></mpath>
    </animateMotion>
  </circle>
  <circle cx="0" cy="0" r="4" fill="#9CA7FF">
    <animateMotion dur="3s" repeatCount="indefinite" begin="-0.25s">
      <mpath href="#signup-illo__line-left"></mpath>
    </animateMotion>
  </circle>
<path d="M176.62 205.04C176.62 209.06 179.66 213.62 183.37 215.17L351.06 294.39C353.16 295.38 354.63 295.52 357.72 294.74C369.41 291.79 369.41 286.8 369.41 281.5V151.07C369.41 147.05 366.37 142.49 362.66 140.94L183.37 66.3002C180.88 65.2602 178.57 65.7302 176.72 66.6402C175.99 67.0002 166.72 71.0102 166.72 71.0102C166.53 71.6102 168.17 76.0202 168.17 76.7602L176.62 205.04Z" fill="#9CA7FF" stroke="black" stroke-miterlimit="10" stroke-linejoin="round"/>
<path d="M358.43 155L354.87 147.82L366.34 143.05L369.42 150.43L358.43 155Z" fill="white"/>
<path d="M358.24 276.01V272.06L369.76 267.26L369.75 271.22L358.24 276.01Z" fill="black"/>
<path d="M358.24 290.24V285.58C358.24 285.58 364.21 287.04 369.77 280L369.53 285.11L367.41 289.76L363.38 292.77L357.02 295L358.24 290.24Z" fill="black"/>
<path d="M176.62 205.04C176.62 209.06 179.66 213.62 183.37 215.17L351.06 294.39C353.16 295.38 354.63 295.52 357.72 294.74C369.41 291.79 369.41 286.8 369.41 281.5V151.07C369.41 147.05 366.37 142.49 362.66 140.94L183.37 66.3002C180.88 65.2602 178.57 65.7302 176.72 66.6402C175.99 67.0002 166.78 71.2702 166.78 71.2702C166.59 71.8702 168.17 76.0202 168.17 76.7602L176.62 205.04Z" stroke="black" stroke-miterlimit="10" stroke-linejoin="round"/>
<path d="M165.44 209.97C165.44 213.99 168.48 218.55 172.19 220.1L351.48 294.75C355.2 296.3 358.23 294.27 358.23 290.25V156C358.23 151.98 355.19 147.42 351.48 145.87L172.19 71.22C168.47 69.67 165.44 71.7 165.44 75.72V209.97Z" fill="white" stroke="black" stroke-miterlimit="10" stroke-linejoin="round"/>
<path d="M176.48 135.47C176.48 137.12 177.73 138.99 179.25 139.62L343.4 207.96C344.92 208.59 346.17 207.76 346.17 206.11V182.63C346.17 180.98 344.92 179.11 343.4 178.48L179.25 110.14C177.73 109.51 176.48 110.34 176.48 111.99V135.47Z" fill="white"/>
<path d="M176.48 135.47C176.48 137.12 177.73 138.99 179.25 139.62L343.4 207.96C344.92 208.59 346.17 207.76 346.17 206.11V182.63C346.17 180.98 344.92 179.11 343.4 178.48L179.25 110.14C177.73 109.51 176.48 110.34 176.48 111.99V135.47Z" stroke="#9CA7FF" stroke-miterlimit="10" stroke-linejoin="round"/>
<path d="M179.07 184.61C179.07 185.71 179.9 186.96 180.92 187.38L218.89 203.21C219.91 203.63 220.74 203.08 220.74 201.98V165.06C220.74 163.96 219.91 162.71 218.89 162.29L180.92 146.46C179.9 146.04 179.07 146.59 179.07 147.69V184.61Z" stroke="#CE97FF" stroke-miterlimit="10" stroke-linejoin="round"/>
<path d="M176.48 185.72C176.48 186.82 177.31 188.07 178.33 188.49L216.3 204.32C216.79 204.53 217.24 204.5 217.58 204.29C217.93 204.07 218.15 203.65 218.15 203.09V166.17C218.15 165.62 217.94 165.03 217.61 164.53C217.28 164.03 216.81 163.61 216.31 163.4L178.34 147.57C177.85 147.36 177.4 147.39 177.06 147.6C176.71 147.82 176.49 148.24 176.49 148.8V185.72H176.48Z" fill="white" stroke="#9CA7FF" stroke-miterlimit="10" stroke-linejoin="round"/>
<path d="M177.06 147.6L217.58 204.29" stroke="#9CA7FF" stroke-miterlimit="10" stroke-linejoin="round"/>
<path d="M177.06 187.44L217.58 164.49" stroke="#9CA7FF" stroke-miterlimit="10" stroke-linejoin="round"/>
<path d="M177.05 147.6C177.38 147.39 177.83 147.37 178.33 147.57L216.3 163.4C216.81 163.61 217.27 164.03 217.6 164.53L220.17 163.42C219.84 162.92 219.37 162.5 218.87 162.29L180.9 146.46C180.41 146.25 179.96 146.28 179.62 146.49L177.05 147.6Z" fill="#9CA7FF" stroke="#9CA7FF" stroke-miterlimit="10" stroke-linejoin="round"/>
<path d="M220.19 163.42C220.52 163.92 220.73 164.51 220.73 165.06V201.98C220.73 202.54 220.51 202.97 220.16 203.18L217.57 204.29C217.92 204.07 218.14 203.65 218.14 203.09V166.17C218.14 165.62 217.93 165.03 217.6 164.53L220.19 163.42Z" fill="#9CA7FF" stroke="#9CA7FF" stroke-miterlimit="10" stroke-linejoin="round"/>
<path d="M345.81 170.62L342.85 171.95L343.66 160.43L345.29 159.75C345.87 159.51 346.52 159.93 346.52 160.57V169.52C346.52 169.99 346.24 170.42 345.81 170.62Z" fill="black" stroke="black" stroke-miterlimit="10" stroke-linejoin="round"/>
<path d="M346.16 159.12L183.81 91.5201C183.39 91.3501 182.11 90.8001 181.18 90.4001C180.41 90.0701 179.53 90.0801 178.77 90.4201L176.67 91.3701C176.49 91.4501 176.37 91.6301 176.38 91.8301C176.39 92.0301 176.5 92.2101 176.69 92.2801L343.39 161.2C343.45 161.23 343.52 161.24 343.58 161.24C343.65 161.24 343.71 161.23 343.77 161.2C343.91 161.14 344.07 161.06 344.23 160.98C344.56 160.81 345 160.62 345.22 160.62C345.32 160.63 345.44 160.67 345.57 160.72C345.65 160.75 345.73 160.78 345.81 160.82C345.89 160.86 345.96 160.93 346.02 161.01C346.13 161.18 346.32 161.26 346.52 161.23C346.72 161.2 346.88 161.06 346.93 160.87C347.12 160.12 346.82 159.4 346.16 159.12Z" fill="black"/>
<path d="M176.22 100.98C176.22 102.08 177.05 103.33 178.07 103.75L341.73 171.89C342.75 172.31 343.58 171.76 343.58 170.66V162.75C343.58 161.65 342.75 160.4 341.73 159.98L178.07 91.83C177.05 91.41 176.22 91.9599 176.22 93.0599V100.98Z" fill="white"/>
<path d="M176.22 100.98C176.22 102.08 177.05 103.33 178.07 103.75L341.73 171.89C342.75 172.31 343.58 171.76 343.58 170.66V162.75C343.58 161.65 342.75 160.4 341.73 159.98L178.07 91.83C177.05 91.41 176.22 91.9599 176.22 93.0599V100.98Z" stroke="black" stroke-miterlimit="10" stroke-linejoin="round"/>
<path d="M176.22 205.37C176.22 206.47 177.05 207.72 178.07 208.14L341.73 276.28C342.75 276.7 343.58 276.15 343.58 275.05V267.14C343.58 266.04 342.75 264.79 341.73 264.37L178.07 196.23C177.05 195.81 176.22 196.36 176.22 197.46V205.37Z" fill="white"/>
<path d="M176.22 205.37C176.22 206.47 177.05 207.72 178.07 208.14L341.73 276.28C342.75 276.7 343.58 276.15 343.58 275.05V267.14C343.58 266.04 342.75 264.79 341.73 264.37L178.07 196.23C177.05 195.81 176.22 196.36 176.22 197.46V205.37Z" stroke="black" stroke-miterlimit="10" stroke-linejoin="round"/>
<path d="M227.26 204.79C227.26 205.89 228.09 207.14 229.11 207.56L344.32 255.53C345.34 255.95 346.17 255.4 346.17 254.3V217.39C346.17 216.29 345.34 215.04 344.32 214.62L229.11 166.65C228.09 166.23 227.26 166.78 227.26 167.88V204.79Z" fill="black"/>
<path d="M227.26 204.79C227.26 205.89 228.09 207.14 229.11 207.56L344.32 255.53C345.34 255.95 346.17 255.4 346.17 254.3V217.39C346.17 216.29 345.34 215.04 344.32 214.62L229.11 166.65C228.09 166.23 227.26 166.78 227.26 167.88V204.79Z" stroke="black" stroke-miterlimit="10" stroke-linejoin="round"/>
<path d="M217.87 208.74C217.87 209.84 218.7 211.09 219.72 211.51L334.93 259.48C335.95 259.9 336.78 259.35 336.78 258.25V221.34C336.78 220.24 335.95 218.99 334.93 218.57L219.71 170.6C218.69 170.18 217.86 170.73 217.86 171.83V208.74H217.87Z" fill="#CE97FF" stroke="black" stroke-miterlimit="10" stroke-linejoin="round"/>
<path d="M212.95 210.89C212.95 211.99 213.78 213.24 214.8 213.66L330.01 261.63C330.57 261.86 331.08 261.8 331.42 261.51C331.69 261.27 331.86 260.89 331.86 260.4V223.49C331.86 222.98 331.68 222.43 331.38 221.95C331.04 221.4 330.55 220.95 330.01 220.72L214.8 172.75C214.29 172.54 213.83 172.57 213.5 172.79C213.17 173.01 212.96 173.43 212.96 173.98V210.89H212.95Z" fill="#9CA7FF" stroke="black" stroke-miterlimit="10" stroke-linejoin="round"/>
<path d="M331.86 229.8L212.95 180.29" stroke="black" stroke-miterlimit="10"/>
<path d="M331.86 237.98L212.95 188.47" stroke="black" stroke-miterlimit="10"/>
<path d="M331.86 246.16L212.95 196.65" stroke="black" stroke-miterlimit="10"/>
<path d="M331.86 254.34L212.95 204.84" stroke="black" stroke-miterlimit="10"/>
<path d="M312.16 213.52V254.42" stroke="black" stroke-miterlimit="10" stroke-linejoin="round"/>
<path d="M261.55 192.47V233.38" stroke="black" stroke-miterlimit="10" stroke-linejoin="round"/>
<path d="M336.29 219.8C335.95 219.25 335.46 218.8 334.92 218.57L219.71 170.6C219.2 170.39 218.74 170.42 218.41 170.64L213.47 172.79C213.8 172.57 214.27 172.53 214.77 172.75L329.98 220.72C330.52 220.95 331.01 221.4 331.35 221.95L336.29 219.8Z" fill="#9CA7FF" stroke="black" stroke-miterlimit="10" stroke-linejoin="round"/>
<path d="M331.38 221.95C331.68 222.43 331.86 222.98 331.86 223.49V260.4C331.86 260.89 331.69 261.27 331.42 261.51L336.34 259.36C336.61 259.12 336.78 258.74 336.78 258.25V221.34C336.78 220.83 336.6 220.28 336.3 219.8L331.38 221.95Z" fill="#9CA7FF" stroke="black" stroke-miterlimit="10" stroke-linejoin="round"/>
</svg>
